<?xml version="1.0" standalone="no"?>
<!DOCTYPE svg PUBLIC "-//W3C//DTD SVG 20010904//EN"
 "http://www.w3.org/TR/2001/REC-SVG-20010904/DTD/svg10.dtd">
<svg version="1.0" xmlns="http://www.w3.org/2000/svg"
 width="848.000000pt" height="848.000000pt" viewBox="0 0 848.000000 848.000000"
 preserveAspectRatio="xMidYMid meet">
<metadata>
Created by potrace 1.14, written by Peter Selinger 2001-2017
</metadata>
<g transform="translate(0.000000,848.000000) scale(0.100000,-0.100000)"
fill="#000000" stroke="none">
<path d="M4320 6469 c-201 -52 -423 -198 -735 -485 -77 -71 -178 -162 -225
-203 -83 -73 -84 -74 -94 -50 -155 372 -309 609 -446 683 -131 71 -279 33
-383 -99 -79 -101 -231 -384 -406 -760 -215 -458 -313 -626 -457 -775 -89 -93
-188 -167 -289 -218 -109 -54 -397 -136 -589 -167 -120 -19 -455 -45 -593 -45
l-103 0 0 -131 0 -130 178 2 c176 2 178 2 265 -30 129 -47 225 -93 356 -170
202 -120 347 -228 761 -571 472 -391 654 -511 893 -592 120 -40 296 -51 408
-24 224 55 365 174 768 645 97 112 116 131 123 115 4 -11 40 -111 79 -224 223
-642 445 -1107 637 -1336 87 -104 205 -182 308 -204 40 -9 54 -18 77 -50 38
-53 102 -104 173 -137 51 -24 72 -28 154 -28 82 0 103 4 152 27 161 75 252
220 483 768 169 403 324 690 496 925 89 120 322 358 437 444 251 189 568 332
922 417 112 27 125 27 463 31 l347 4 0 130 0 130 -512 -1 c-470 -1 -521 1
-613 19 -551 108 -971 311 -1293 625 -119 116 -190 204 -347 431 -486 702
-748 961 -1051 1040 -82 21 -249 18 -344 -6z m303 -164 c251 -65 510 -332 957
-984 153 -225 226 -317 339 -429 230 -230 530 -419 868 -546 67 -25 129 -46
138 -46 35 0 11 -16 -42 -29 -32 -7 -94 -24 -138 -38 -76 -24 -88 -25 -235
-20 -367 14 -593 87 -925 300 -207 133 -346 192 -510 217 -196 30 -411 -34
-610 -182 -92 -68 -335 -312 -465 -466 -61 -73 -109 -122 -118 -120 -10 2 -38
74 -84 218 -175 544 -316 971 -380 1148 -38 107 -68 197 -66 201 2 5 41 41 88
81 47 40 153 134 235 210 194 177 261 234 373 313 220 156 415 214 575 172z
m-1901 -144 c70 -55 216 -322 317 -578 l20 -52 -132 -98 c-263 -195 -572 -391
-838 -532 -64 -33 -119 -61 -122 -61 -4 0 14 33 38 74 25 40 96 179 159 307
62 129 158 326 213 439 166 341 272 520 309 520 6 0 22 -9 36 -19z m438 -898
c43 -117 211 -621 304 -911 59 -185 71 -233 58 -229 -448 143 -698 201 -1052
241 -214 24 -549 39 -754 33 -103 -3 -187 -5 -185 -3 51 46 163 118 229 146
420 184 894 460 1250 729 58 44 108 80 112 80 3 1 20 -38 38 -86z m1975 -729
c84 -22 221 -89 350 -173 135 -88 309 -177 435 -224 90 -33 270 -78 373 -92
l48 -6 -58 -45 c-84 -65 -223 -205 -308 -309 -189 -234 -326 -462 -818 -1365
-109 -199 -172 -290 -228 -327 -22 -14 -41 -24 -43 -22 -11 13 -75 233 -141
484 -185 706 -335 1026 -611 1302 l-92 91 65 79 c447 538 703 690 1028 607z
m-3043 -324 c518 -24 934 -105 1400 -270 l117 -42 30 -91 c17 -51 31 -100 31
-110 0 -33 -458 -560 -590 -680 -107 -96 -251 -157 -373 -157 -235 0 -494 145
-977 547 -489 407 -699 563 -905 674 -91 50 -94 47 75 79 124 23 288 37 605
49 291 12 358 12 587 1z m4803 -248 c-400 -232 -697 -543 -960 -1007 -89 -157
-162 -310 -302 -640 -149 -350 -222 -492 -293 -569 -30 -32 -69 -65 -87 -73
-62 -25 -138 -12 -201 34 l-34 25 49 33 c59 39 145 131 196 207 20 31 127 222
238 424 311 571 396 716 542 931 262 388 482 565 832 668 124 37 128 30 20
-33z m-2715 -544 c156 -233 246 -465 386 -994 41 -156 77 -292 80 -302 11 -34
-48 44 -107 143 -111 183 -238 467 -373 828 -66 178 -196 554 -196 566 2 17
157 -161 210 -241z"/>
</g>
</svg>
